<svg viewBox="0 0 26 26"><path clip-rule="evenodd" d="M13 0.902344C6.0875 0.902344 0.5 6.48984 0.5 13.4023C0.5 20.3148 6.0875 25.9023 13 25.9023C19.9125 25.9023 25.5 20.3148 25.5 13.4023C25.5 6.48984 19.9125 0.902344 13 0.902344ZM12.9999 23.4023C7.48742 23.4023 2.99992 18.9148 2.99992 13.4023C2.99992 7.88985 7.48742 3.40235 12.9999 3.40235C18.5124 3.40235 22.9999 7.88985 22.9999 13.4023C22.9999 18.9148 18.5124 23.4023 12.9999 23.4023ZM12.9999 11.6398L17.4874 7.15235L19.2499 8.91485L14.7624 13.4023L19.2499 17.8898L17.4874 19.6523L12.9999 15.1648L8.51242 19.6523L6.74992 17.8898L11.2374 13.4023L6.74992 8.91485L8.51242 7.15235L12.9999 11.6398Z"/></svg>