<svg width="26" height="26" viewBox="0 0 26 26" xmlns="http://www.w3.org/2000/svg"><path clip-rule="evenodd" d="M13 0.5C6.0875 0.5 0.5 6.0875 0.5 13C0.5 19.9125 6.0875 25.5 13 25.5C19.9125 25.5 25.5 19.9125 25.5 13C25.5 6.0875 19.9125 0.5 13 0.5ZM12.9999 23C7.48742 23 2.99992 18.5125 2.99992 13C2.99992 7.4875 7.48742 3 12.9999 3C18.5124 3 22.9999 7.4875 22.9999 13C22.9999 18.5125 18.5124 23 12.9999 23ZM12.9999 11.2375L17.4874 6.75L19.2499 8.5125L14.7624 13L19.2499 17.4875L17.4874 19.25L12.9999 14.7625L8.51242 19.25L6.74992 17.4875L11.2374 13L6.74992 8.5125L8.51242 6.75L12.9999 11.2375Z"/></svg>